<?xml version="1.0" encoding="utf-8"?>
<!-- Generator: Adobe Illustrator 16.0.0, SVG Export Plug-In . SVG Version: 6.00 Build 0)  -->
<!DOCTYPE svg PUBLIC "-//W3C//DTD SVG 1.1//EN" "http://www.w3.org/Graphics/SVG/1.1/DTD/svg11.dtd">
<svg version="1.1" id="Layer_1" xmlns="http://www.w3.org/2000/svg" xmlns:xlink="http://www.w3.org/1999/xlink" x="0px" y="0px"
	 width="343.336px" height="132.273px" viewBox="0 0 343.336 132.273" enable-background="new 0 0 343.336 132.273"
	 xml:space="preserve">
<g>
	<path fill="#B3B5B8" d="M190.898,111.046c4.685,0,8.526,3.803,8.526,8.504c0,4.682-3.843,8.52-8.526,8.52
		c-4.67,0-8.487-3.838-8.487-8.52C182.41,114.849,186.228,111.046,190.898,111.046z"/>
	<path fill="#B3B5B8" d="M23.024,118.891V64.177H11.142c-5.256,0-7.43-3.818-7.43-7.516c0-3.831,2.708-7.535,7.43-7.535h40.104
		c4.694,0,7.417,3.703,7.417,7.535c0,3.695-2.175,7.516-7.417,7.516H39.341v54.713c0,5.463-3.45,8.49-8.173,8.49
		C26.475,127.38,23.024,124.353,23.024,118.891z"/>
	<path fill="#B3B5B8" d="M62.258,118.89V56.954c0-5.451,3.465-8.478,8.198-8.478c4.67,0,8.171,3.025,8.171,8.478v61.936
		c0,5.463-3.501,8.489-8.171,8.489C65.723,127.379,62.258,124.353,62.258,118.89z"/>
	<path fill="#B3B5B8" d="M141.307,127.378c-3.172,0-5.232-1.818-8.309-5.101L104.79,91.776v27.773c0,4.24-3.31,7.828-8.211,7.828
		c-4.683,0.001-8.16-3.025-8.16-7.828V56.546c0-4.448,3.271-8.068,8.16-8.068c4.71,0,8.211,3.023,8.211,8.068v23.526l26.819-28.571
		c1.183-1.281,3.253-3.023,6.279-3.023c4.16,0,8.112,3.133,8.112,7.842c0,2.844-1.758,5.142-5.344,8.722l-20.625,20.295
		l25.177,26.279c2.633,2.598,4.585,4.991,4.585,8.251C149.795,125.024,145.747,127.378,141.307,127.378z"/>
	<path fill="#B3B5B8" d="M171.382,118.89c0,5.462-3.487,8.488-8.185,8.488c-4.671,0-8.185-3.026-8.185-8.488V56.954
		c0-5.453,3.514-8.478,8.185-8.478c4.696,0,8.185,3.023,8.185,8.478V118.89z"/>
	<path fill="#B3B5B8" d="M205.839,60.356c-0.55-1.438-0.735-2.512-0.735-4.038c0-4.574,4.002-7.841,8.383-7.841
		c3.693,0,5.976,2.379,7.399,5.334l16.909,45.345l16.891-45.345c1.404-2.955,3.683-5.334,7.415-5.336
		c4.341,0,8.381,3.268,8.381,7.842c0,1.526-0.208,2.601-0.747,4.038l-23.891,60.729c-1.414,3.449-3.257,6.293-8.049,6.293
		c-4.831,0-6.662-2.844-8.076-6.293L205.839,60.356z"/>
	<path fill="#B3B5B8" d="M340.49,118.888c0,5.463-3.514,8.489-8.185,8.489c-2.062,0-5.328-1.634-6.855-3.587l-34.591-45.562h-0.192
		v40.658c0,5.463-3.486,8.489-8.173,8.489c-4.718,0-8.185-3.026-8.185-8.489V56.952c0-5.451,3.467-8.478,8.185-8.478
		c2.037,0,5.418,1.621,6.9,3.621l34.508,46.08h0.232V56.952c0-5.451,3.474-8.478,8.171-8.478c4.671,0,8.185,3.025,8.185,8.478
		V118.888L340.49,118.888z"/>
	<g>
		<path fill="#B3B5B8" d="M70.138,3.552c-10.477,0-18.979,8.494-18.979,18.984c0,10.463,8.504,18.977,18.979,18.977
			c10.514,0,18.988-8.514,18.988-18.977C89.126,12.046,80.652,3.552,70.138,3.552z M84.687,23.708
			c0,8.024-6.524,14.514-14.549,14.514c-8.016,0-14.527-6.488-14.527-14.514c0-1.396,0.221-2.724,0.563-3.996l27.933-0.002
			C84.481,20.984,84.687,22.312,84.687,23.708z"/>
		<path fill="#B3B5B8" d="M163.209,3.552c-10.464,0-18.988,8.494-18.988,18.984c0,10.463,8.524,18.977,18.988,18.977
			c10.479,0,18.99-8.514,18.99-18.977C182.2,12.046,173.689,3.552,163.209,3.552z M163.209,38.222
			c-8.021,0-14.525-6.488-14.525-14.514c0-1.396,0.185-2.725,0.573-3.998h27.932c0.354,1.273,0.561,2.602,0.561,3.998
			C177.749,31.733,171.249,38.222,163.209,38.222z"/>
	</g>
</g>
</svg>
